<?xml version="1.0" encoding="UTF-8" standalone="no"?>
<svg
   xmlns:dc="http://purl.org/dc/elements/1.1/"
   xmlns:cc="http://creativecommons.org/ns#"
   xmlns:rdf="http://www.w3.org/1999/02/22-rdf-syntax-ns#"
   xmlns:svg="http://www.w3.org/2000/svg"
   xmlns="http://www.w3.org/2000/svg"
   viewBox="0 0 666.66669 666.66669"
   height="666.66669"
   width="666.66669"
   xml:space="preserve"
   id="svg2"
   version="1.1"><metadata
     id="metadata8"><rdf:RDF><cc:Work
         rdf:about=""><dc:format>image/svg+xml</dc:format><dc:type
           rdf:resource="http://purl.org/dc/dcmitype/StillImage" /></cc:Work></rdf:RDF></metadata><defs
     id="defs6"><clipPath
       id="clipPath20"
       clipPathUnits="userSpaceOnUse"><path
         id="path18"
         d="M 0,500 H 500 V 0 H 0 Z" /></clipPath><clipPath
       id="clipPath110"
       clipPathUnits="userSpaceOnUse"><path
         id="path108"
         d="M 0,500 H 500 V 0 H 0 Z" /></clipPath></defs><g
     transform="matrix(1.3333333,0,0,-1.3333333,0,666.66667)"
     id="g10"><path
       id="path12"
       style="fill:#ffffff;fill-opacity:1;fill-rule:nonzero;stroke:none"
       d="M 0,0 H 500 V 500 H 0 Z" /><g
       id="g14"><g
         clip-path="url(#clipPath20)"
         id="g16"><g
           transform="translate(206.8066,68.2246)"
           id="g22"><path
             id="path24"
             style="fill:#e3ecf7;fill-opacity:1;fill-rule:nonzero;stroke:none"
             d="m 0,0 c -15.089,0 -14.856,11.839 -7.66,14.856 -27.392,6.036 -22.982,38.302 -0.696,48.284 -15.553,13.232 13.718,37.374 20.218,42.944 -5.87,44.046 71.572,70.801 99.196,32.731 17.177,13.696 39.23,0.232 34.123,-25.534 22.749,4.178 43.64,-19.035 31.105,-46.195 C 192.768,66.622 212.268,54.783 202.75,33.427 229.909,34.124 230.838,0 203.91,0 Z" /></g><g
           transform="translate(294.1416,199.1001)"
           id="g26"><path
             id="path28"
             style="fill:#f7c01e;fill-opacity:1;fill-rule:nonzero;stroke:none"
             d="m 0,0 -58.215,-23.532 -32.214,79.691 58.215,23.532 19.907,-49.246 4.76,-11.774 z" /></g><g
           transform="translate(253.8672,260.3535)"
           id="g30"><path
             id="path32"
             style="fill:#ffffff;fill-opacity:1;fill-rule:nonzero;stroke:none"
             d="m 0,0 -33.005,-13.342 -1.297,3.207 33.006,13.342 z" /></g><g
           transform="translate(256.6895,253.373)"
           id="g34"><path
             id="path36"
             style="fill:#ffffff;fill-opacity:1;fill-rule:nonzero;stroke:none"
             d="m 0,0 -33.006,-13.342 -1.297,3.207 33.006,13.343 z" /></g><g
           transform="translate(259.5107,246.3926)"
           id="g38"><path
             id="path40"
             style="fill:#ffffff;fill-opacity:1;fill-rule:nonzero;stroke:none"
             d="m 0,0 -33.006,-13.342 -1.296,3.208 33.006,13.342 z" /></g><g
           transform="translate(262.333,239.4126)"
           id="g42"><path
             id="path44"
             style="fill:#ffffff;fill-opacity:1;fill-rule:nonzero;stroke:none"
             d="m 0,0 -33.006,-13.342 -1.297,3.207 33.006,13.342 z" /></g><g
           transform="translate(271.0273,208.4321)"
           id="g46"><path
             id="path48"
             style="fill:#f15a24;fill-opacity:1;fill-rule:nonzero;stroke:none"
             d="m 0,0 v 0 c -1.817,-0.734 -3.887,0.143 -4.621,1.961 l -4.564,11.288 c -0.734,1.817 0.144,3.886 1.961,4.621 1.818,0.734 3.887,-0.143 4.621,-1.961 L 1.96,4.622 C 2.695,2.804 1.817,0.735 0,0" /></g><g
           transform="translate(276.5684,204.1943)"
           id="g50"><path
             id="path52"
             style="fill:#f15a24;fill-opacity:1;fill-rule:nonzero;stroke:none"
             d="m 0,0 c 0.735,-1.817 -0.143,-3.887 -1.96,-4.621 -1.817,-0.735 -3.887,0.143 -4.621,1.96 -0.735,1.818 0.143,3.887 1.96,4.621 C -2.804,2.695 -0.734,1.817 0,0" /></g><g
           transform="translate(286.5947,217.771)"
           id="g54"><path
             id="path56"
             style="fill:#eda71e;fill-opacity:1;fill-rule:nonzero;stroke:none"
             d="m 0,0 c -1.921,-1.173 -4.74,-1.161 -6.085,0.637 -1.033,1.405 -0.859,3.352 -0.495,5.055 0.177,0.827 0.894,3.618 1.82,6.082 z" /></g><g
           transform="translate(350.1689,308.5244)"
           id="g58"><path
             id="path60"
             style="fill:#cedef2;fill-opacity:1;fill-rule:nonzero;stroke:none"
             d="M 0,0 17.712,0.014 C 16.166,-2.398 13.43,-7.495 11.069,-16.167 8.419,-25.906 9.149,-34.646 9.676,-38.374 l -0.021,-0.002 -16.405,0.963 c -0.188,0.535 -0.361,1.242 -0.511,2.1 -0.336,1.941 -0.527,4.659 -0.383,7.949 0.29,6.499 1.886,15.232 6.271,24.589 C -0.942,-1.858 -0.486,-0.932 0,0" /></g><g
           transform="translate(342.4414,281.1631)"
           id="g62"><path
             id="path64"
             style="fill:#eda8b0;fill-opacity:1;fill-rule:nonzero;stroke:none"
             d="M 0,0 0.084,-0.003 C -0.061,-3.292 0.131,-6.01 0.467,-7.951 L 0.395,-7.964 c -36.832,2.927 -49.584,-21.548 -52.207,-26.735 -2.622,-5.187 -3.811,-12.643 -7.603,-12.254 -0.168,0.02 -0.33,0.046 -0.487,0.086 1.841,0.409 4.016,5.905 5.486,11.302 1.598,5.868 8.162,20.675 24.897,28.789 C -12.779,1.341 0,0 0,0" /></g><g
           transform="translate(263.5752,302.6855)"
           id="g66"><path
             id="path68"
             style="fill:#feccd1;fill-opacity:1;fill-rule:nonzero;stroke:none"
             d="m 0,0 c 1.957,0.501 4.068,0.879 6.342,1.106 -10.277,1.344 -22.869,8.933 -29.96,16.902 -7.046,7.92 -12.308,14.448 -10.81,17.764 1.074,0.798 3.216,0.023 5.522,-2.48 2.99,-3.253 8.35,-10.685 17.635,-17.072 5.016,-3.457 11.185,-6.608 18.742,-8.634 -7.689,3.4 -19.701,12.987 -23.531,18.243 -4.361,5.983 -6.958,12.31 -5.829,15.045 l 0.003,0.003 c 0.88,1.413 2.614,1.401 4.076,-1.363 1.845,-3.487 6.996,-14.343 20.375,-22.166 3.076,-1.798 6.584,-3.432 10.592,-4.782 -9.974,5.505 -15.923,11.912 -19.039,16.83 -2.823,4.45 -4.117,7.976 -3.431,9.632 0.775,0.663 2.264,-0.176 3.526,-2.174 C -3.642,33.446 10.077,16.296 31.971,9.249 53.864,2.201 85.127,3.105 85.127,3.105 L 85.221,3.063 C 80.836,-6.293 79.239,-15.026 78.95,-21.525 l -0.084,0.003 c 0,0 -12.779,1.34 -29.518,-6.777 -16.736,-8.113 -23.3,-22.92 -24.898,-28.788 -1.47,-5.397 -3.644,-10.894 -5.486,-11.302 -5.075,1.136 -4.827,11.501 -0.782,20.455 4.174,9.239 10.344,20.511 4.279,28.988 -6.059,8.477 -16.497,13.105 -28.316,5.954 -11.817,-7.153 -11.165,-17.953 -10.838,-20.649 0.33,-2.699 -4.54,-5.554 -5.812,1.278 C -24.117,-23.69 -20.117,-5.169 0,0" /></g><g
           transform="translate(229.1475,338.458)"
           id="g70"><path
             id="path72"
             style="fill:#eda8b0;fill-opacity:1;fill-rule:nonzero;stroke:none"
             d="m 0,0 c -1.498,-3.316 3.764,-9.844 10.81,-17.765 7.09,-7.969 19.683,-15.557 29.96,-16.901 -2.274,-0.228 -4.385,-0.605 -6.342,-1.106 C 24.269,-33.08 10.322,-25.235 0.859,-6.94 -1.094,-3.159 -1.082,-0.792 0,0" /></g><g
           transform="translate(254.0234,337.9492)"
           id="g74"><path
             id="path76"
             style="fill:#eda8b0;fill-opacity:1;fill-rule:nonzero;stroke:none"
             d="m 0,0 c -0.502,2.087 -0.313,3.301 0.238,3.765 -0.685,-1.657 0.609,-5.183 3.432,-9.632 3.116,-4.919 9.064,-11.325 19.039,-16.83 -4.008,1.349 -7.517,2.984 -10.592,4.781 C 5.715,-13.015 1.213,-5.022 0,0" /></g><g
           transform="translate(252.3418,318.9658)"
           id="g78"><path
             id="path80"
             style="fill:#eda8b0;fill-opacity:1;fill-rule:nonzero;stroke:none"
             d="m 0,0 c -9.582,10.538 -10.51,17.216 -11.142,21.198 -0.221,1.413 0.004,2.621 0.487,3.395 -1.129,-2.735 1.467,-9.062 5.829,-15.045 3.829,-5.256 15.842,-14.842 23.53,-18.242 -7.557,2.026 -13.725,5.177 -18.742,8.634 z" /></g><g
           transform="translate(448.1494,265.5679)"
           id="g82"><path
             id="path84"
             style="fill:#7ca8dc;fill-opacity:1;fill-rule:nonzero;stroke:none"
             d="m 0,0 -87.984,2.667 c 0,0 -0.148,0.685 -0.321,1.916 -0.526,3.727 -1.257,12.467 1.394,22.206 2.36,8.673 5.097,13.769 6.642,16.182 0.759,1.189 1.234,1.729 1.234,1.729 l 69.043,0.875 c 3.041,0.039 5.527,-2.416 5.527,-5.458 0,-3.014 -2.444,-5.458 -5.458,-5.458 h -2.294 c -2.041,0 -3.696,-1.655 -3.696,-3.696 0,-2.041 1.655,-3.695 3.696,-3.695 h 25.406 c 4.046,0 7.326,-3.28 7.326,-7.325 0,-4.046 -3.28,-7.325 -7.326,-7.325 H -5.024 c -1.786,0 -3.234,-1.448 -3.234,-3.234 0,-1.785 1.448,-3.233 3.234,-3.233 H 0.094 C 1.792,6.151 3.17,4.773 3.17,3.075 3.17,1.339 1.735,-0.052 0,0" /></g><g
           transform="translate(272.4102,68.2246)"
           id="g86"><path
             id="path88"
             style="fill:#cedef2;fill-opacity:1;fill-rule:nonzero;stroke:none"
             d="m 0,0 c 10.331,0 7.198,8.766 0.736,10.172 4.663,10.293 0.081,42.034 -42.002,38.225 4.994,15.75 -7.88,31.296 -23.319,21.862 1.164,39.314 -44.142,48.043 -62.045,21.579 -12.874,9.959 -29.877,2.672 -24.86,-14.274 -15.576,2.861 -29.881,-13.033 -21.298,-31.63 -11.285,-0.318 -24.636,-8.424 -18.119,-23.046 C -209.504,23.365 -210.14,0 -191.702,0 Z" /></g><g
           transform="translate(323.4395,125.0591)"
           id="g90"><path
             id="path92"
             style="fill:#d14615;fill-opacity:1;fill-rule:nonzero;stroke:none"
             d="m 0,0 h -146.88 v -45.265 c 0,-6.39 5.18,-11.569 11.569,-11.569 H -11.569 C -5.18,-56.834 0,-51.655 0,-45.265 Z" /></g><g
           transform="translate(329.0898,143.8359)"
           id="g94"><path
             id="path96"
             style="fill:#f15a24;fill-opacity:1;fill-rule:nonzero;stroke:none"
             d="m 0,0 v -14.184 c 0,-2.537 -2.057,-4.593 -4.593,-4.593 h -148.994 c -2.537,0 -4.593,2.056 -4.593,4.593 V 0 c 0,2.537 2.056,4.593 4.593,4.593 H -4.593 C -2.057,4.593 0,2.537 0,0" /></g></g></g><text
       id="text102"
       style="font-variant:normal;font-weight:bold;font-stretch:normal;font-size:12.38930035px;font-family:Montserrat;-inkscape-font-specification:Montserrat-Bold;writing-mode:lr-tb;fill:#ffffff;fill-opacity:1;fill-rule:nonzero;stroke:none"
       transform="matrix(1,0,0,-1,199.3867,92.5508)"><tspan
         id="tspan98"
         y="0"
         x="0 8.8955173 19.352087 31.183868 40.128944 47.686417 57.17662 61.240311 71.250862 74.757034 84.234848 94.380447">COMPLAIN BOX</tspan><tspan
         id="tspan100"
         y="-1.0035332"
         x="-1.0035332 7.891984 18.348553 30.180334 39.125408 46.682884 56.173088 60.236778 70.24733 73.753502 83.231316 93.376915">COMPLAIN BOX</tspan></text>
<g
       id="g104"><g
         clip-path="url(#clipPath110)"
         id="g106"><g
           transform="translate(279.0596,148.4292)"
           id="g112"><path
             id="path114"
             style="fill:#d14615;fill-opacity:1;fill-rule:nonzero;stroke:none"
             d="M 0,0 C 0,-0.8 -0.329,-1.52 -0.85,-2.05 -1.369,-2.58 -2.1,-2.9 -2.899,-2.9 H -55.22 c -1.599,0 -2.899,1.3 -2.899,2.9 z" /></g><g
           transform="translate(113.8398,302.2461)"
           id="g116"><path
             id="path118"
             style="fill:#cedef2;fill-opacity:1;fill-rule:nonzero;stroke:none"
             d="m 0,0 c 23.187,0 41.982,-18.006 41.982,-40.219 0,-10.063 -3.862,-19.258 -10.241,-26.309 -3.547,-3.922 -2.648,-10.198 2.102,-12.521 l 0.127,-0.061 c -5.707,-1.489 -9.919,-0.853 -13.119,0.71 -1.996,0.976 -4.255,1.171 -6.35,0.432 -4.52,-1.596 -9.403,-2.469 -14.501,-2.469 -23.187,0 -41.982,18.006 -41.982,40.218 C -41.982,-18.006 -23.187,0 0,0" /></g><g
           transform="translate(102.708,238.5771)"
           id="g120"><path
             id="path122"
             style="fill:#f2f7fc;fill-opacity:1;fill-rule:nonzero;stroke:none"
             d="m 0,0 c -0.45,7.904 -1.209,23.403 -2.2,25.743 -0.991,2.34 -5.045,7.696 -5.954,14.597 -0.91,6.901 2.702,9.376 3.77,0.472 1.068,-8.904 2.229,-7.488 1.842,-0.062 -0.387,7.426 3.368,9.376 3.851,0.749 C 1.79,32.871 2.773,34.198 3.236,40.563 3.7,46.928 6.731,49.382 6.732,40.308 6.734,30.184 4.727,28.871 4.025,25.511 3.324,22.15 4.05,7.898 4.252,0.256 4.454,-7.386 0.384,-6.743 0,0" /></g><g
           transform="translate(120.2979,236.814)"
           id="g124"><path
             id="path126"
             style="fill:#f2f7fc;fill-opacity:1;fill-rule:nonzero;stroke:none"
             d="m 0,0 c 0.739,8.925 2.513,21.831 2.496,24.379 -0.017,2.55 -7.436,8.065 -4.28,17.288 3.587,10.48 11.333,10.297 13.851,1.878 C 15.739,31.275 7.086,28.358 6.787,24.144 6.488,19.93 5.62,5.515 5.268,0.104 4.915,-5.308 -0.455,-5.499 0,0" /></g><g
           transform="translate(180.1436,419.7051)"
           id="g128"><path
             id="path130"
             style="fill:#cedef2;fill-opacity:1;fill-rule:nonzero;stroke:none"
             d="m 0,0 c 21.062,0 38.136,-16.356 38.136,-36.534 0,-9.235 -3.581,-17.666 -9.483,-24.096 -3.215,-3.503 -2.184,-9.1 2.093,-11.178 l 0.111,-0.054 c -4.159,-1.085 -7.444,-0.928 -10.082,-0.09 -3.462,1.101 -7.14,1.115 -10.653,0.189 C 6.899,-72.612 3.505,-73.067 0,-73.067 c -21.062,0 -38.136,16.357 -38.136,36.533 C -38.136,-16.356 -21.062,0 0,0" /></g><g
           transform="translate(377.1211,112.6123)"
           id="g132"><path
             id="path134"
             style="fill:none;stroke:#b5cfed;stroke-width:1.097;stroke-linecap:round;stroke-linejoin:miter;stroke-miterlimit:10;stroke-dasharray:none;stroke-opacity:1"
             d="m 0,0 c -0.44,12.58 7.184,27.217 0.931,46.586 -6.253,19.37 2.255,24.714 -0.898,38.309 -3.151,13.595 4.078,20.41 0.504,33.324 -3.573,12.914 1.988,16.439 -0.257,23.235 -2.245,6.796 4.225,13.043 0.308,23.009" /></g><g
           transform="translate(379.5293,133.0825)"
           id="g136"><path
             id="path138"
             style="fill:#b5cfed;fill-opacity:1;fill-rule:nonzero;stroke:none"
             d="M 0,0 C 0.549,0.387 -10.761,19.278 -15.848,14.999 -20.935,10.719 -0.776,-0.548 0,0" /></g><g
           transform="translate(378.0195,160.0244)"
           id="g140"><path
             id="path142"
             style="fill:#b5cfed;fill-opacity:1;fill-rule:nonzero;stroke:none"
             d="M 0,0 C -0.823,1.315 6.933,18.093 15.859,15.906 26.619,13.27 0.341,-0.545 0,0" /></g><g
           transform="translate(377.3105,187.5996)"
           id="g144"><path
             id="path146"
             style="fill:#b5cfed;fill-opacity:1;fill-rule:nonzero;stroke:none"
             d="M 0,0 C 0.756,0.923 -12.05,15.808 -15.599,11.166 -19.147,6.524 -0.822,-1.003 0,0" /></g><g
           transform="translate(377.8105,214.958)"
           id="g148"><path
             id="path150"
             style="fill:#b5cfed;fill-opacity:1;fill-rule:nonzero;stroke:none"
             d="M 0,0 C -0.423,1.251 8.6,14.774 17.117,12.757 25.357,10.806 0.692,-2.05 0,0" /></g><g
           transform="translate(377.6582,230.8311)"
           id="g152"><path
             id="path154"
             style="fill:#b5cfed;fill-opacity:1;fill-rule:nonzero;stroke:none"
             d="M 0,0 C -0.244,1.144 -6.942,11.481 -12.185,9.504 -20.764,6.269 0.292,-1.364 0,0" /></g><g
           transform="translate(378.0195,248.7808)"
           id="g156"><path
             id="path158"
             style="fill:#b5cfed;fill-opacity:1;fill-rule:nonzero;stroke:none"
             d="M 0,0 C -0.047,1.337 5.251,10.78 12.156,8.175 19.062,5.57 0.065,-1.854 0,0" /></g><g
           transform="translate(377.6006,262.2544)"
           id="g160"><path
             id="path162"
             style="fill:#b5cfed;fill-opacity:1;fill-rule:nonzero;stroke:none"
             d="M 0,0 C 1.262,2.035 -4.516,10.779 -8.065,9.694 -14.72,7.663 -1.117,-1.802 0,0" /></g><g
           transform="translate(378.6592,274.7944)"
           id="g164"><path
             id="path166"
             style="fill:#b5cfed;fill-opacity:1;fill-rule:nonzero;stroke:none"
             d="M 0,0 C -0.052,0.514 4.54,6.241 9.383,4.97 14.226,3.7 0.08,-0.789 0,0" /></g><g
           transform="translate(401.4189,114.9751)"
           id="g168"><path
             id="path170"
             style="fill:#7ca8dc;fill-opacity:1;fill-rule:nonzero;stroke:none"
             d="M 0,0 C 2.756,0 4.873,-2.439 4.485,-5.167 L 3.466,-12.348 -0.57,-40.734 c -0.491,-3.452 -3.447,-6.016 -6.933,-6.016 h -31.349 c -3.486,0 -6.442,2.565 -6.932,6.018 l -4.027,28.384 -1.019,7.181 C -51.218,-2.439 -49.101,0 -46.345,0 Z" /></g><g
           transform="translate(407.1787,110.6172)"
           id="g172"><path
             id="path174"
             style="fill:#97bce8;fill-opacity:1;fill-rule:nonzero;stroke:none"
             d="M 0,0 -1.099,-7.735 H -56.766 L -57.864,0 c -0.388,2.728 1.729,5.168 4.485,5.168 H -4.485 C -1.729,5.168 0.388,2.728 0,0" /></g><g
           transform="translate(166.8262,392.0981)"
           id="g176"><path
             id="path178"
             style="fill:#f2f7fc;fill-opacity:1;fill-rule:nonzero;stroke:none"
             d="M 0,0 0.429,3.304 H -2.569 L -2.998,0 Z m 2.305,0 h 2.65 V -2.223 H 2.039 L 1.632,-5.486 h -2.306 l 0.409,3.263 h -2.998 l -0.409,-3.263 h -2.282 l 0.407,3.263 H -8.219 V 0 h 2.937 l 0.428,3.304 h -2.67 v 2.223 h 2.935 L -4.18,8.79 h 2.284 L -2.305,5.527 H 0.693 L 1.102,8.79 H 3.385 L 2.978,5.527 H 5.629 L 5.649,3.304 H 2.713 Z" /></g><g
           transform="translate(181.6738,389.6714)"
           id="g180"><path
             id="path182"
             style="fill:#f2f7fc;fill-opacity:1;fill-rule:nonzero;stroke:none"
             d="m 0,0 c 0.243,0.245 0.367,0.537 0.367,0.877 0,0.339 -0.127,0.618 -0.378,0.836 -0.251,0.217 -0.616,0.408 -1.092,0.571 V -0.53 C -0.613,-0.421 -0.246,-0.245 0,0 M -4.264,6.342 C -4.005,6.125 -3.63,5.941 -3.142,5.792 V 8.688 C -3.659,8.566 -4.039,8.372 -4.283,8.107 -4.528,7.841 -4.65,7.532 -4.65,7.179 -4.65,6.838 -4.521,6.56 -4.264,6.342 M 2.427,-1.744 C 1.61,-2.539 0.434,-3.032 -1.103,-3.222 v -2.284 h -2.039 v 2.222 c -1.005,0.055 -1.963,0.232 -2.876,0.531 -0.911,0.298 -1.644,0.666 -2.202,1.102 l 1.121,2.487 c 0.518,-0.38 1.123,-0.7 1.817,-0.958 0.692,-0.258 1.406,-0.421 2.14,-0.49 v 3.406 c -0.965,0.231 -1.781,0.49 -2.447,0.775 -0.666,0.285 -1.223,0.703 -1.672,1.254 -0.448,0.551 -0.673,1.281 -0.673,2.193 0,1.128 0.411,2.097 1.234,2.906 0.823,0.808 2.008,1.301 3.558,1.478 v 2.264 h 2.039 V 11.441 C 0.57,11.305 1.95,10.891 3.038,10.197 L 2.018,7.688 C 0.999,8.273 -0.042,8.626 -1.103,8.75 V 5.282 C -0.15,5.064 0.655,4.816 1.314,4.538 1.975,4.259 2.527,3.844 2.977,3.294 3.426,2.743 3.649,2.02 3.649,1.122 c 0,-1.115 -0.408,-2.07 -1.222,-2.866" /></g><g
           transform="translate(200.7705,388.7026)"
           id="g184"><path
             id="path186"
             style="fill:#f2f7fc;fill-opacity:1;fill-rule:nonzero;stroke:none"
             d="M 0,0 C 0.267,0.387 0.398,0.949 0.398,1.683 0.398,2.417 0.267,2.978 0,3.365 -0.265,3.752 -0.629,3.947 -1.09,3.947 -1.539,3.947 -1.898,3.755 -2.171,3.375 -2.443,2.995 -2.58,2.431 -2.58,1.683 c 0,-0.748 0.137,-1.313 0.409,-1.693 0.273,-0.381 0.632,-0.571 1.081,-0.571 0.461,0 0.825,0.193 1.09,0.581 m -2.916,-1.774 c -0.537,0.32 -0.955,0.778 -1.254,1.377 -0.299,0.598 -0.449,1.291 -0.449,2.08 0,0.788 0.15,1.482 0.449,2.08 0.299,0.598 0.717,1.057 1.254,1.376 0.537,0.32 1.145,0.48 1.826,0.48 1.047,0 1.899,-0.357 2.56,-1.071 0.658,-0.714 0.988,-1.669 0.988,-2.865 0,-1.197 -0.33,-2.152 -0.988,-2.865 -0.661,-0.714 -1.513,-1.071 -2.56,-1.071 -0.681,0 -1.289,0.16 -1.826,0.479 m 0.643,13.959 H 0.153 L -9.595,-2.09 h -2.426 z M -9.687,6.72 c 0.265,0.381 0.399,0.945 0.399,1.693 0,0.748 -0.134,1.312 -0.399,1.692 -0.264,0.381 -0.628,0.572 -1.091,0.572 -0.448,0 -0.809,-0.195 -1.08,-0.582 -0.272,-0.387 -0.409,-0.948 -0.409,-1.682 0,-0.735 0.137,-1.295 0.409,-1.683 0.271,-0.388 0.632,-0.581 1.08,-0.581 0.463,0 0.827,0.19 1.091,0.571 m -3.651,-1.173 c -0.658,0.714 -0.988,1.669 -0.988,2.866 0,1.196 0.33,2.151 0.988,2.865 0.66,0.714 1.513,1.071 2.56,1.071 1.047,0 1.897,-0.357 2.55,-1.071 0.653,-0.714 0.979,-1.669 0.979,-2.865 0,-1.197 -0.326,-2.152 -0.979,-2.866 -0.653,-0.713 -1.503,-1.07 -2.55,-1.07 -1.047,0 -1.9,0.357 -2.56,1.07" /></g><g
           transform="translate(170.5381,374.0703)"
           id="g188"><path
             id="path190"
             style="fill:#f2f7fc;fill-opacity:1;fill-rule:nonzero;stroke:none"
             d="m 0,0 c -0.279,-0.245 -0.418,-0.558 -0.418,-0.937 0,-0.286 0.074,-0.555 0.223,-0.807 0.15,-0.251 0.442,-0.588 0.878,-1.008 0.693,0.366 1.176,0.695 1.448,0.988 0.272,0.292 0.407,0.609 0.407,0.949 0,0.353 -0.122,0.638 -0.367,0.856 C 1.928,0.258 1.581,0.367 1.132,0.367 0.655,0.367 0.278,0.245 0,0 m 3.354,-8.851 -3.446,3.223 c -0.639,-0.368 -1.095,-0.728 -1.367,-1.081 -0.271,-0.354 -0.407,-0.754 -0.407,-1.204 0,-0.53 0.23,-0.958 0.693,-1.285 0.462,-0.326 1.081,-0.489 1.856,-0.489 0.992,0 1.882,0.279 2.671,0.836 m 3.589,-3.324 -1.713,1.591 c -1.359,-1.061 -2.951,-1.591 -4.772,-1.591 -1.033,0 -1.965,0.167 -2.793,0.5 -0.83,0.333 -1.479,0.799 -1.948,1.397 -0.47,0.598 -0.703,1.271 -0.703,2.019 0,0.883 0.247,1.661 0.743,2.334 0.497,0.674 1.296,1.317 2.397,1.928 -0.517,0.531 -0.89,1.037 -1.122,1.519 -0.23,0.483 -0.346,0.983 -0.346,1.499 0,0.693 0.184,1.305 0.551,1.835 0.366,0.531 0.886,0.942 1.56,1.235 0.672,0.292 1.45,0.438 2.335,0.438 1.237,0 2.228,-0.296 2.976,-0.887 C 4.856,1.051 5.23,0.251 5.23,-0.755 5.23,-1.489 5.01,-2.142 4.568,-2.712 4.125,-3.284 3.416,-3.833 2.438,-4.364 l 2.609,-2.427 c 0.312,0.652 0.551,1.394 0.714,2.223 L 8.31,-5.363 C 8.038,-6.628 7.604,-7.708 7.004,-8.605 l 1.673,-1.551 z" /></g><g
           transform="translate(185.415,373.2344)"
           id="g192"><path
             id="path194"
             style="fill:#f2f7fc;fill-opacity:1;fill-rule:nonzero;stroke:none"
             d="m 0,0 2.224,-1.204 -1,-1.672 -2.245,1.326 0.041,-2.468 h -1.916 l 0.02,2.489 -2.242,-1.347 -0.981,1.672 2.224,1.204 -2.224,1.223 0.981,1.673 2.242,-1.346 -0.02,2.488 h 1.916 l -0.041,-2.488 2.245,1.346 1,-1.673 z" /></g><g
           transform="translate(194.6738,373.2344)"
           id="g196"><path
             id="path198"
             style="fill:#f2f7fc;fill-opacity:1;fill-rule:nonzero;stroke:none"
             d="M 0,0 2.223,-1.204 1.224,-2.876 -1.021,-1.55 -0.98,-4.018 h -1.917 l 0.021,2.489 -2.243,-1.347 -0.98,1.672 L -3.876,0 -6.099,1.223 -5.119,2.896 -2.876,1.55 -2.897,4.038 H -0.98 L -1.021,1.55 1.224,2.896 2.223,1.223 Z" /></g><g
           transform="translate(323.4395,422.6772)"
           id="g200"><path
             id="path202"
             style="fill:#cedef2;fill-opacity:1;fill-rule:nonzero;stroke:none"
             d="m 0,0 c 20.886,0 37.816,-16.22 37.816,-36.228 0,-9.064 -3.478,-17.347 -9.224,-23.699 -3.196,-3.532 -2.386,-9.185 1.893,-11.278 l 0.114,-0.055 c -5.141,-1.342 -8.935,-0.769 -11.817,0.64 -1.798,0.878 -3.833,1.054 -5.719,0.389 C 8.991,-71.669 4.592,-72.456 0,-72.456 c -20.886,0 -37.816,16.22 -37.816,36.228 C -37.816,-16.22 -20.886,0 0,0" /></g><g
           transform="translate(345.2861,387.1172)"
           id="g204"><path
             id="path206"
             style="fill:#e3ecf7;fill-opacity:1;fill-rule:nonzero;stroke:none"
             d="m 0,0 c 0,-4.854 -1.546,-9.328 -4.17,-12.991 -4.043,-5.69 -10.696,-9.391 -18.212,-9.391 -12.356,0 -22.382,10.025 -22.382,22.382 0,3.814 0.964,7.414 2.65,10.544 0.443,0.837 0.937,1.635 1.482,2.395 4.043,5.716 10.709,9.442 18.25,9.442 11.61,0 21.165,-8.845 22.268,-20.163 C -0.038,1.482 0,0.748 0,0" /></g><g
           transform="translate(309.0977,372.5146)"
           id="g208"><path
             id="path210"
             style="fill:none;stroke:#6194cf;stroke-width:1.26699996;stroke-linecap:round;stroke-linejoin:round;stroke-miterlimit:10;stroke-dasharray:none;stroke-opacity:1"
             d="m 0,0 c 0,4.168 3.379,7.547 7.547,7.547 4.168,0 7.547,-3.379 7.547,-7.547" /></g><g
           transform="translate(305.207,386.9888)"
           id="g212"><path
             id="path214"
             style="fill:none;stroke:#6194cf;stroke-width:1.26699996;stroke-linecap:round;stroke-linejoin:round;stroke-miterlimit:10;stroke-dasharray:none;stroke-opacity:1"
             d="m 0,0 c 0,-1.837 1.49,-3.327 3.327,-3.327 1.838,0 3.328,1.49 3.328,3.327" /></g><g
           transform="translate(321.5439,386.9888)"
           id="g216"><path
             id="path218"
             style="fill:none;stroke:#6194cf;stroke-width:1.26699996;stroke-linecap:round;stroke-linejoin:round;stroke-miterlimit:10;stroke-dasharray:none;stroke-opacity:1"
             d="m 0,0 c 0,-1.837 1.489,-3.327 3.327,-3.327 1.837,0 3.327,1.49 3.327,3.327" /></g><g
           transform="translate(345.2861,387.1172)"
           id="g220"><path
             id="path222"
             style="fill:#b5cfed;fill-opacity:1;fill-rule:nonzero;stroke:none"
             d="m 0,0 c 0,-4.854 -1.546,-9.328 -4.17,-12.991 -0.469,0.165 -0.937,0.381 -1.381,0.621 -2.395,1.293 -4.246,3.904 -4.588,6.603 1.128,-0.253 2.332,0.038 3.308,0.646 1.242,0.787 2.167,2.13 2.307,3.613 0.127,1.47 -0.583,3.016 -1.876,3.751 -1.281,0.722 -3.295,0.57 -4.271,-0.545 0.482,0.938 0.558,2.066 0.215,3.067 -0.329,0.989 -1.077,1.838 -2.027,2.294 -1.382,0.672 -3.017,0.494 -4.487,0.9 -2.168,0.596 -3.979,2.458 -5.463,4.144 0.698,-1.115 1.103,-2.281 1.496,-3.536 -5.247,-0.938 -10.874,-0.088 -15.487,2.611 0.634,-0.824 1.039,-1.622 1.318,-2.636 -2.458,0.076 -4.892,0.76 -7.008,2.002 0.443,0.837 0.937,1.635 1.482,2.395 4.043,5.716 10.709,9.442 18.25,9.442 11.61,0 21.165,-8.845 22.268,-20.163 C -0.038,1.482 0,0.748 0,0" /></g><g
           transform="translate(44.5059,68.2246)"
           id="g224"><path
             id="path226"
             style="fill:none;stroke:#6194cf;stroke-width:2.5;stroke-linecap:round;stroke-linejoin:miter;stroke-miterlimit:10;stroke-dasharray:none;stroke-opacity:1"
             d="M 0,0 H 410.988" /></g><g
           transform="translate(261.9297,278.7959)"
           id="g228"><path
             id="path230"
             style="fill:#f7c01e;fill-opacity:1;fill-rule:nonzero;stroke:none"
             d="M 0,0 -32.71,-13.222 5.765,-14.261 Z" /></g><g
           transform="translate(212.3535,280.6851)"
           id="g232"><path
             id="path234"
             style="fill:#b5cfed;fill-opacity:1;fill-rule:nonzero;stroke:none"
             d="m 0,0 v -18.107 c 0,-1.026 -0.839,-1.866 -1.864,-1.866 -1.027,0 -1.865,0.84 -1.865,1.866 V 0 c 0,1.026 0.838,1.865 1.865,1.865 C -0.839,1.865 0,1.026 0,0" /></g><g
           transform="translate(212.3535,289.2979)"
           id="g236"><path
             id="path238"
             style="fill:#b5cfed;fill-opacity:1;fill-rule:nonzero;stroke:none"
             d="m 0,0 v -2.102 c 0,-1.026 -0.839,-1.865 -1.864,-1.865 -1.027,0 -1.865,0.839 -1.865,1.865 V 0 c 0,1.026 0.838,1.865 1.865,1.865 C -0.839,1.865 0,1.026 0,0" /></g><g
           transform="translate(212.3535,299.9141)"
           id="g240"><path
             id="path242"
             style="fill:#b5cfed;fill-opacity:1;fill-rule:nonzero;stroke:none"
             d="m 0,0 v -0.375 c 0,-1.026 -0.839,-1.865 -1.864,-1.865 -1.027,0 -1.865,0.839 -1.865,1.865 V 0 c 0,1.026 0.838,1.865 1.865,1.865 C -0.839,1.865 0,1.026 0,0" /></g><g
           transform="translate(117.4971,339.2656)"
           id="g244"><path
             id="path246"
             style="fill:#97bce8;fill-opacity:1;fill-rule:nonzero;stroke:none"
             d="m 0,0 h -0.802 c -0.443,0 -0.802,0.36 -0.802,0.804 v 0.801 c 0,0.391 -0.262,0.751 -0.646,0.827 C -2.765,2.535 -3.221,2.138 -3.221,1.64 V 0.804 C -3.221,0.36 -3.581,0 -4.024,0 h -0.802 c -0.391,0 -0.751,-0.262 -0.827,-0.645 -0.103,-0.515 0.294,-0.971 0.792,-0.971 h 0.837 c 0.443,0 0.803,-0.36 0.803,-0.803 v -0.802 c 0,-0.391 0.262,-0.751 0.645,-0.827 0.515,-0.102 0.972,0.294 0.972,0.792 v 0.837 c 0,0.443 0.359,0.803 0.802,0.803 h 0.837 c 0.498,0 0.895,0.456 0.792,0.971 C 0.751,-0.262 0.391,0 0,0" /></g><g
           transform="translate(185.8682,205.4277)"
           id="g248"><path
             id="path250"
             style="fill:#e3ecf7;fill-opacity:1;fill-rule:nonzero;stroke:none"
             d="m 0,0 h -1.102 c -0.609,0 -1.103,0.495 -1.103,1.104 v 1.102 c 0,0.537 -0.36,1.032 -0.888,1.137 C -3.8,3.484 -4.427,2.939 -4.427,2.254 V 1.104 C -4.427,0.495 -4.922,0 -5.531,0 h -1.102 c -0.537,0 -1.033,-0.36 -1.138,-0.887 -0.14,-0.708 0.405,-1.335 1.089,-1.335 h 1.151 c 0.609,0 1.104,-0.494 1.104,-1.104 v -1.102 c 0,-0.537 0.36,-1.032 0.887,-1.137 0.708,-0.141 1.335,0.404 1.335,1.089 v 1.15 c 0,0.61 0.494,1.104 1.103,1.104 h 1.151 c 0.684,0 1.229,0.627 1.089,1.335 C 1.033,-0.36 0.538,0 0,0" /></g><g
           transform="translate(74.0498,165.0518)"
           id="g252"><path
             id="path254"
             style="fill:#cedef2;fill-opacity:1;fill-rule:nonzero;stroke:none"
             d="m 0,0 h -1.189 c -0.66,0 -1.194,0.534 -1.194,1.193 v 1.189 c 0,0.58 -0.388,1.116 -0.958,1.228 C -4.104,3.762 -4.782,3.174 -4.782,2.435 V 1.193 C -4.782,0.534 -5.316,0 -5.975,0 h -1.189 c -0.58,0 -1.115,-0.389 -1.229,-0.958 -0.151,-0.765 0.437,-1.441 1.176,-1.441 h 1.242 c 0.659,0 1.193,-0.535 1.193,-1.193 v -1.19 c 0,-0.58 0.388,-1.115 0.958,-1.228 0.764,-0.152 1.441,0.437 1.441,1.176 v 1.242 c 0,0.658 0.534,1.193 1.194,1.193 h 1.242 c 0.738,0 1.327,0.676 1.175,1.441 C 1.115,-0.389 0.58,0 0,0" /></g><g
           transform="translate(406.2373,347.9961)"
           id="g256"><path
             id="path258"
             style="fill:#cedef2;fill-opacity:1;fill-rule:nonzero;stroke:none"
             d="m 0,0 h -0.97 c -0.536,0 -0.971,0.435 -0.971,0.972 v 0.969 c 0,0.473 -0.317,0.909 -0.781,1.001 C -3.345,3.065 -3.896,2.586 -3.896,1.984 V 0.972 C -3.896,0.435 -4.331,0 -4.868,0 h -0.97 c -0.473,0 -0.908,-0.317 -1,-0.781 -0.124,-0.622 0.356,-1.174 0.958,-1.174 h 1.012 c 0.537,0 0.972,-0.436 0.972,-0.972 v -0.969 c 0,-0.473 0.316,-0.909 0.78,-1.001 0.623,-0.124 1.175,0.355 1.175,0.958 v 1.012 c 0,0.536 0.435,0.972 0.971,0.972 h 1.013 c 0.602,0 1.081,0.552 0.958,1.174 C 0.908,-0.317 0.473,0 0,0" /></g><g
           transform="translate(427.6299,200.9072)"
           id="g260"><path
             id="path262"
             style="fill:#cedef2;fill-opacity:1;fill-rule:nonzero;stroke:none"
             d="m 0,0 h -1.057 c -0.586,0 -1.06,0.475 -1.06,1.06 v 1.058 c 0,0.515 -0.346,0.991 -0.852,1.091 C -3.648,3.344 -4.25,2.821 -4.25,2.164 V 1.06 C -4.25,0.475 -4.725,0 -5.311,0 h -1.057 c -0.516,0 -0.991,-0.346 -1.092,-0.852 -0.135,-0.679 0.389,-1.281 1.046,-1.281 h 1.103 c 0.586,0 1.061,-0.475 1.061,-1.06 V -4.25 c 0,-0.517 0.346,-0.992 0.852,-1.092 0.679,-0.135 1.281,0.388 1.281,1.045 v 1.104 c 0,0.585 0.474,1.06 1.06,1.06 h 1.104 c 0.657,0 1.18,0.602 1.045,1.281 C 0.991,-0.346 0.517,0 0,0" /></g><g
           transform="translate(251.4131,430.6733)"
           id="g264"><path
             id="path266"
             style="fill:#cedef2;fill-opacity:1;fill-rule:nonzero;stroke:none"
             d="M 0,0 H -0.749 C -1.164,0 -1.5,0.336 -1.5,0.751 V 1.5 c 0,0.365 -0.244,0.702 -0.603,0.773 -0.481,0.096 -0.908,-0.275 -0.908,-0.74 V 0.751 C -3.011,0.336 -3.347,0 -3.762,0 h -0.749 c -0.365,0 -0.702,-0.245 -0.773,-0.603 -0.096,-0.481 0.275,-0.908 0.74,-0.908 h 0.782 c 0.415,0 0.751,-0.336 0.751,-0.751 v -0.749 c 0,-0.365 0.245,-0.702 0.604,-0.773 0.481,-0.096 0.907,0.275 0.907,0.74 v 0.782 c 0,0.415 0.336,0.751 0.751,0.751 h 0.782 c 0.465,0 0.836,0.427 0.74,0.908 C 0.702,-0.245 0.365,0 0,0" /></g><g
           transform="translate(179.2686,243.1841)"
           id="g268"><path
             id="path270"
             style="fill:#97bce8;fill-opacity:1;fill-rule:nonzero;stroke:none"
             d="m 0,0 c 0,-0.547 -0.443,-0.99 -0.99,-0.99 -0.547,0 -0.99,0.443 -0.99,0.99 0,0.547 0.443,0.99 0.99,0.99 C -0.443,0.99 0,0.547 0,0" /></g><g
           transform="translate(176.2393,315.939)"
           id="g272"><path
             id="path274"
             style="fill:#97bce8;fill-opacity:1;fill-rule:nonzero;stroke:none"
             d="m 0,0 c 0,-0.45 -0.365,-0.815 -0.815,-0.815 -0.451,0 -0.816,0.365 -0.816,0.815 0,0.451 0.365,0.816 0.816,0.816 C -0.365,0.816 0,0.451 0,0" /></g><g
           transform="translate(329.3184,241.4741)"
           id="g276"><path
             id="path278"
             style="fill:#97bce8;fill-opacity:1;fill-rule:nonzero;stroke:none"
             d="m 0,0 c 0,-0.475 -0.385,-0.86 -0.86,-0.86 -0.475,0 -0.861,0.385 -0.861,0.86 0,0.475 0.386,0.86 0.861,0.86 C -0.385,0.86 0,0.475 0,0" /></g><g
           transform="translate(331.2314,328.0083)"
           id="g280"><path
             id="path282"
             style="fill:#cedef2;fill-opacity:1;fill-rule:nonzero;stroke:none"
             d="m 0,0 c 0,-0.528 -0.429,-0.957 -0.956,-0.957 -0.528,0 -0.957,0.429 -0.957,0.957 0,0.528 0.429,0.956 0.957,0.956 C -0.429,0.956 0,0.528 0,0" /></g><g
           transform="translate(407.1514,198.542)"
           id="g284"><path
             id="path286"
             style="fill:#cedef2;fill-opacity:1;fill-rule:nonzero;stroke:none"
             d="m 0,0 c 0,-0.634 -0.514,-1.147 -1.147,-1.147 -0.634,0 -1.148,0.513 -1.148,1.147 0,0.633 0.514,1.147 1.148,1.147 C -0.514,1.147 0,0.633 0,0" /></g><g
           transform="translate(419.0078,138.4937)"
           id="g288"><path
             id="path290"
             style="fill:#cedef2;fill-opacity:1;fill-rule:nonzero;stroke:none"
             d="m 0,0 c 0,-0.528 -0.428,-0.956 -0.956,-0.956 -0.527,0 -0.956,0.428 -0.956,0.956 0,0.528 0.429,0.957 0.956,0.957 C -0.428,0.957 0,0.528 0,0" /></g><g
           transform="translate(131.1992,200.1675)"
           id="g292"><path
             id="path294"
             style="fill:#cedef2;fill-opacity:1;fill-rule:nonzero;stroke:none"
             d="m 0,0 c 0,-0.581 -0.471,-1.052 -1.052,-1.052 -0.581,0 -1.052,0.471 -1.052,1.052 0,0.581 0.471,1.052 1.052,1.052 C -0.471,1.052 0,0.581 0,0" /></g><g
           transform="translate(79.5654,119.8481)"
           id="g296"><path
             id="path298"
             style="fill:#cedef2;fill-opacity:1;fill-rule:nonzero;stroke:none"
             d="m 0,0 c 0,-0.686 -0.557,-1.243 -1.243,-1.243 -0.687,0 -1.243,0.557 -1.243,1.243 0,0.687 0.556,1.243 1.243,1.243 C -0.557,1.243 0,0.687 0,0" /></g><g
           transform="translate(141.1436,136.5815)"
           id="g300"><path
             id="path302"
             style="fill:#f2f7fc;fill-opacity:1;fill-rule:nonzero;stroke:none"
             d="m 0,0 c 0,-0.739 -0.6,-1.339 -1.339,-1.339 -0.739,0 -1.339,0.6 -1.339,1.339 0,0.739 0.6,1.339 1.339,1.339 C -0.6,1.339 0,0.739 0,0" /></g><g
           transform="translate(354.1797,163.6411)"
           id="g304"><path
             id="path306"
             style="fill:#f2f7fc;fill-opacity:1;fill-rule:nonzero;stroke:none"
             d="m 0,0 c 0,-0.687 -0.557,-1.243 -1.243,-1.243 -0.687,0 -1.243,0.556 -1.243,1.243 0,0.687 0.556,1.243 1.243,1.243 C -0.557,1.243 0,0.687 0,0" /></g><g
           transform="translate(288.5859,164.7886)"
           id="g308"><path
             id="path310"
             style="fill:#f2f7fc;fill-opacity:1;fill-rule:nonzero;stroke:none"
             d="m 0,0 c 0,-0.687 -0.557,-1.243 -1.243,-1.243 -0.687,0 -1.243,0.556 -1.243,1.243 0,0.687 0.556,1.243 1.243,1.243 C -0.557,1.243 0,0.687 0,0" /></g><g
           transform="translate(331.8047,97.0913)"
           id="g312"><path
             id="path314"
             style="fill:#f2f7fc;fill-opacity:1;fill-rule:nonzero;stroke:none"
             d="m 0,0 c 0,-0.792 -0.642,-1.434 -1.435,-1.434 -0.792,0 -1.433,0.642 -1.433,1.434 0,0.792 0.641,1.435 1.433,1.435 C -0.642,1.435 0,0.792 0,0" /></g><g
           transform="translate(151.9092,94.6777)"
           id="g316"><path
             id="path318"
             style="fill:#f2f7fc;fill-opacity:1;fill-rule:nonzero;stroke:none"
             d="m 0,0 c 0,-0.546 -0.442,-0.989 -0.988,-0.989 -0.546,0 -0.989,0.443 -0.989,0.989 0,0.546 0.443,0.988 0.989,0.988 C -0.442,0.988 0,0.546 0,0" /></g><g
           transform="translate(114.3447,95.9956)"
           id="g320"><path
             id="path322"
             style="fill:#f2f7fc;fill-opacity:1;fill-rule:nonzero;stroke:none"
             d="m 0,0 c 0,-0.455 -0.369,-0.824 -0.824,-0.824 -0.455,0 -0.823,0.369 -0.823,0.824 0,0.455 0.368,0.824 0.823,0.824 C -0.369,0.824 0,0.455 0,0" /></g><g
           transform="translate(68.0479,103.9043)"
           id="g324"><path
             id="path326"
             style="fill:#f2f7fc;fill-opacity:1;fill-rule:nonzero;stroke:none"
             d="m 0,0 c 0,-0.546 -0.443,-0.989 -0.989,-0.989 -0.546,0 -0.989,0.443 -0.989,0.989 0,0.546 0.443,0.988 0.989,0.988 C -0.443,0.988 0,0.546 0,0" /></g><g
           transform="translate(71.1777,209.8437)"
           id="g328"><path
             id="path330"
             style="fill:#f2f7fc;fill-opacity:1;fill-rule:nonzero;stroke:none"
             d="m 0,0 c 0,-0.91 -0.737,-1.648 -1.647,-1.648 -0.911,0 -1.648,0.738 -1.648,1.648 0,0.91 0.737,1.647 1.648,1.647 C -0.737,1.647 0,0.91 0,0" /></g><g
           transform="translate(445.1768,160.0874)"
           id="g332"><path
             id="path334"
             style="fill:#e3ecf7;fill-opacity:1;fill-rule:nonzero;stroke:none"
             d="m 0,0 c 0,-1.273 -1.032,-2.306 -2.306,-2.306 -1.273,0 -2.305,1.033 -2.305,2.306 0,1.273 1.032,2.306 2.305,2.306 C -1.032,2.306 0,1.273 0,0" /></g></g></g></g></svg>